<?xml version="1.0" encoding="utf-8"?>
<!-- Generator: Adobe Illustrator 21.1.0, SVG Export Plug-In . SVG Version: 6.00 Build 0)  -->
<svg version="1.1" id="Layer_1" xmlns="http://www.w3.org/2000/svg" xmlns:xlink="http://www.w3.org/1999/xlink" x="0px" y="0px"
	 viewBox="0 0 142 129" style="enable-background:new 0 0 142 129;" xml:space="preserve">
<style type="text/css">
	.st0{fill:#FFFFFF;}
	.st1{display:none;fill:url(#SVGID_1_);}
	.st2{display:none;fill-rule:evenodd;clip-rule:evenodd;fill:url(#SVGID_2_);}
</style>
<g>
	<path class="st0" d="M70.5,1C35.4,1,7,29.4,7,64.5S35.4,128,70.5,128S134,99.6,134,64.5S105.6,1,70.5,1z M70.5,125
		C37.1,125,10,97.9,10,64.5C10,31.1,37.1,4,70.5,4S131,31.1,131,64.5C131,97.9,103.9,125,70.5,125z"/>
</g>
<rect x="124" y="63" class="st0" width="17" height="3"/>
<linearGradient id="SVGID_1_" gradientUnits="userSpaceOnUse" x1="37.3787" y1="63.0001" x2="102.6159" y2="63.0001">
	<stop  offset="0" style="stop-color:#62BC4A"/>
	<stop  offset="1" style="stop-color:#66B9BC"/>
</linearGradient>
<path class="st1" d="M98.9,97.5c0,2.1-1.7,3.7-3.7,3.7l-50.3,0c-2.1,0-3.7-1.7-3.7-3.7l0-36.8c0-2.1,1.7-3.7,3.7-3.7h50.3
	c2.1,0,3.7,1.7,3.7,3.7L98.9,97.5z M54.7,40.1c0-8.4,6.9-15.3,15.3-15.3s15.3,6.9,15.3,15.3v13.2l-30.6,0V40.1z M95.1,53.2h-6.1
	V40.1C89.1,29.6,80.5,21,70,21s-19.1,8.6-19.1,19.1v13.2h-6.1c-4.1,0-7.5,3.4-7.5,7.5v36.8c0,4.1,3.4,7.5,7.5,7.5h50.3
	c4.1,0,7.5-3.4,7.5-7.5V60.7C102.6,56.6,99.3,53.2,95.1,53.2L95.1,53.2z"/>
<path class="st0" d="M101.2,98.9c-2.6,0-4.7-2.1-4.7-4.7c0-2.6,2.1-4.7,4.7-4.7c2.6,0,4.7,2.1,4.7,4.7
	C105.9,96.8,103.8,98.9,101.2,98.9z M96.6,31.8c0-2.6,2.1-4.7,4.7-4.7c2.6,0,4.7,2.1,4.7,4.7s-2.1,4.7-4.7,4.7
	C98.7,36.4,96.6,34.3,96.6,31.8z M87.2,80.2H52.8V45.8h34.4V80.2z M43.4,94.2c0,2.6-2.1,4.7-4.7,4.7s-4.7-2.1-4.7-4.7
	s2.1-4.7,4.7-4.7S43.4,91.7,43.4,94.2z M34.1,31.8c0-2.6,2.1-4.7,4.7-4.7s4.7,2.1,4.7,4.7s-2.1,4.7-4.7,4.7S34.1,34.3,34.1,31.8z
	 M102.8,86.6V39.4c3.6-0.7,6.2-3.9,6.2-7.7c0-4.3-3.5-7.8-7.8-7.8c-4.3,0-7.8,3.5-7.8,7.8c0,3.8,2.7,6.9,6.2,7.7v31.4h-9.4V44.3
	c0-0.9-0.7-1.6-1.6-1.6H51.2c-0.9,0-1.6,0.7-1.6,1.6v4.7h-9.4v-9.5c3.6-0.7,6.2-3.9,6.2-7.7c0-4.3-3.5-7.8-7.8-7.8s-7.8,3.5-7.8,7.8
	c0,3.8,2.7,6.9,6.2,7.7v11.1c0,0.9,0.7,1.6,1.6,1.6h10.9v21.9H38.7c-0.9,0-1.6,0.7-1.6,1.6v11.1c-3.6,0.7-6.2,3.9-6.2,7.7
	c0,4.3,3.5,7.8,7.8,7.8s7.8-3.5,7.8-7.8c0-3.8-2.7-6.9-6.2-7.7v-9.5h9.4v4.7c0,0.9,0.7,1.6,1.6,1.6h37.5c0.9,0,1.6-0.7,1.6-1.6v-7.8
	h9.4v12.7c-3.6,0.7-6.2,3.9-6.2,7.7c0,4.3,3.5,7.8,7.8,7.8c4.3,0,7.8-3.5,7.8-7.8C109.1,90.5,106.4,87.3,102.8,86.6L102.8,86.6z"/>
<linearGradient id="SVGID_2_" gradientUnits="userSpaceOnUse" x1="36.1085" y1="66.117" x2="111" y2="66.117">
	<stop  offset="0" style="stop-color:#62BC4A"/>
	<stop  offset="1" style="stop-color:#66B9BC"/>
</linearGradient>
<path class="st2" d="M93.1,82.3L93.1,82.3c-0.9,0-1.6,0.7-1.6,1.6V97c0,0.4,0.2,0.9,0.5,1.2c0.3,0.3,0.7,0.5,1.2,0.5
	s0.9-0.2,1.2-0.5c0.3-0.3,0.5-0.7,0.5-1.2V84.2c0.1-0.5-0.1-1-0.4-1.3C94,82.5,93.6,82.3,93.1,82.3L93.1,82.3z M42.6,79.1v3.3h13
	v-3.3H42.6z M93.1,75.9L93.1,75.9c-0.9,0-1.6,0.7-1.6,1.6c0,0.4,0.2,0.8,0.5,1.2c0.3,0.3,0.7,0.5,1.2,0.5c0.4,0,0.8-0.2,1.2-0.5
	c0.3-0.3,0.5-0.7,0.5-1.2s-0.2-0.8-0.5-1.2C93.9,76.1,93.5,75.9,93.1,75.9L93.1,75.9z M42.6,72.6v3.3h19.5v-3.3H42.6z M93.1,72.6
	c3.7,0,7.5,1.4,10.4,4.3c5.7,5.7,5.7,15,0,20.7c-5.7,5.7-15,5.7-20.7,0c-5.7-5.7-5.7-15,0-20.7C85.6,74,89.3,72.6,93.1,72.6
	L93.1,72.6z M39.4,43.3h48.8v26.7c-2.9,0.8-5.5,2.3-7.8,4.6c-4.7,4.7-6.2,11.5-4.6,17.5H39.4L39.4,43.3L39.4,43.3z M101.2,32.6v38.7
	c-3-1.6-6.4-2.2-9.8-1.9V42.4L101.2,32.6L101.2,32.6z M51.5,30.3h47.5l-9.8,9.8H41.7L51.5,30.3z M50.7,27c-0.4,0-0.8,0.2-1.1,0.5
	l-13,13c0,0-0.1,0-0.1,0.1c0,0,0,0,0,0c0,0,0,0,0,0c-0.3,0.4-0.4,0.8-0.3,1.3v51.8c0,0.9,0.7,1.6,1.6,1.6h39.4
	c0.8,1.6,1.9,3.2,3.3,4.5c7,7,18.4,7,25.3,0c7-7,7-18.3,0-25.3v0c-0.4-0.4-0.8-0.8-1.3-1.1V28.7h0c0-0.9-0.7-1.6-1.6-1.6v0H51v0
	C50.9,27.1,50.8,27,50.7,27L50.7,27z"/>
</svg>
