<?xml version="1.0" encoding="utf-8"?>
<!-- Generator: Adobe Illustrator 21.1.0, SVG Export Plug-In . SVG Version: 6.00 Build 0)  -->
<svg version="1.1" id="Layer_1" xmlns="http://www.w3.org/2000/svg" xmlns:xlink="http://www.w3.org/1999/xlink" x="0px" y="0px"
	 viewBox="0 0 142 129" style="enable-background:new 0 0 142 129;" xml:space="preserve">
<style type="text/css">
	.st0{fill:#FFFFFF;}
</style>
<g>
	<path class="st0" d="M70.5,1C35.4,1,7,29.4,7,64.5S35.4,128,70.5,128S134,99.6,134,64.5S105.6,1,70.5,1z M70.5,125
		C37.1,125,10,97.9,10,64.5C10,31.1,37.1,4,70.5,4S131,31.1,131,64.5C131,97.9,103.9,125,70.5,125z"/>
</g>
<rect x="124" y="63" class="st0" width="17" height="3"/>
<g>
	<g>
		<path class="st0" d="M106.9,63.1c-0.3,0.2-0.6,0.4-0.9,0.6V32.2c0-4.4-3.3-7.9-7.3-7.9H41.4c-4.1,0-7.3,3.5-7.3,7.9v31.6
			c-0.3-0.2-0.7-0.4-1-0.7c-2.4-1.7-4,0.6-2.5,2.8c2.9,3.6,8.4,8,16.9,11.5c-9,30.5,21.9,35.4,21.4,19.7c0,0.3,0-8.9,0-15.4
			c0.8,0.2,1.5,0.4,2.2,0.5c0,6.5,0,15.1,0,14.9c-0.5,15.7,30.4,10.8,21.4-19.7c8.5-3.5,14-7.9,16.9-11.5
			C110.9,63.7,109.3,61.4,106.9,63.1z M76.5,70.8c-3.8-0.2-5.2,1.4-5.4,3.9c-0.9-0.6-1.8-1.4-2.8-2.3c-0.2-0.1-0.3-0.3-0.5-0.4
			c-0.8-0.9-2.2-1.3-4.3-1.2C58.5,71,49.2,72,38.5,66.3V35.7c0-5.5,1.4-7.3,6.5-7.3h50.6c4.8,0,6.5,2.1,6.5,7.3v30.4
			C91,72,81.6,71,76.5,70.8z"/>
		<path class="st0" d="M82,48.7c-5.4,0-9.8,4.1-9.8,9.2s4.4,9.2,9.8,9.2c5.4,0,9.8-4.1,9.8-9.2S87.4,48.7,82,48.7z"/>
		<ellipse class="st0" cx="59.1" cy="57.9" rx="9.8" ry="9.2"/>
	</g>
</g>
</svg>
